# xmcd
#
# Track frame offsets: 
#        182
#        12245
#        25242
#        39632
#        52432
#        65262
#        80485
#        97140
#        110547
#        122525
#        135157
#        146957
#        163920
#        182812
#        202315
#        216860
#        230797
#        243617
#        256672
#        269282
#        280312
#        294550
#        314802
#
# Disc length: 4413 seconds
#
# Revision: 6
# Processed by: cddbd v1.5.1PL0 Copyright (c) Steve Scherf et al.
# Submitted via: ExactAudioCopy v0.95a5
#
DISCID=72113b17
DTITLE=Various Artist - Atlantic Blues- Piano
DYEAR=1986
DGENRE=Blues
TTITLE0=Jimmy Yancey - Yancey Special
TTITLE1=Little Brother Montgomery - Talkin' Boogie
TTITLE2=Jimmy Yancey - Mournful Blues
TTITLE3=Jimmy Yancey - Salute To Pinetop
TTITLE4=Jimmy Yancey - Shave 'Em Dry
TTITLE5=Jack Dupree - Frankie and Johnny
TTITLE6=Jack Dupree - TB Blues
TTITLE7=Jack Dupree - Strollin'
TTITLE8=Professor Longhair - Tipitina
TTITLE9=Vann "Piano Man" Walls - Blue Sender
TTITLE10=Vann "Piano Man" Walls - After Midnight
TTITLE11=Joe Turner - Roll 'Em Pete
TTITLE12=Jay McShann - Fore Day Rider
TTITLE13=Jay McShann - My Chile
TTITLE14=Meade Lux Lewis - Cow Cow Blues
TTITLE15=Meade Lux Lewis - Albert's Blues
TTITLE16=Meade Lux Lewis - Honky Tonk Train Blues
TTITLE17=Ray Charles - Low Society
TTITLE18=Floyd Dixon - Hey Bartender
TTITLE19=Floyd Dixon - Floyd's Blues
TTITLE20=Texas Johnny Brown - After Hours Blues
TTITLE21=Doctor John - Junco Partner
TTITLE22=Willie Mabon - I Don't Know
EXTD=LABEL =Atlantic Recording Corporation\nID =781694-2\nUPC =0756
EXTD=7-81694-27\nCOPYRIGHT =1986\n*****\nDue to time restrictions, th
EXTD=e following songs included in the album package are NOT included 
EXTD=on this cd ...\n- Little Brother Montgomery - Farish Street Jive\n
EXTD=Little Brother Montgomery - Vicksburg Blues- 1951\n- Professor 
EXTD=Longhair - Ball the Wall\n- Joe Turner - Cherry red\n- Ray Charle
EXTD=s - Ray's Blues\n- Ray Charles - A Bit of Soul\n*****
EXTT0=
EXTT1=
EXTT2=
EXTT3=
EXTT4=
EXTT5=
EXTT6=
EXTT7=
EXTT8=
EXTT9=
EXTT10=
EXTT11=
EXTT12=
EXTT13=
EXTT14=
EXTT15=
EXTT16=
EXTT17=
EXTT18=
EXTT19=
EXTT20=
EXTT21=
EXTT22=
PLAYORDER=
